<?xml version="1.0" encoding="UTF-8"?>
<svg id="Layer_2" data-name="Layer 2" xmlns="http://www.w3.org/2000/svg" viewBox="0 0 134.47 133.14">
  <defs>
    <style>
      .cls-1 {
        fill: #89d0c2;
      }
    </style>
  </defs>
  <g id="Layer_1-2" data-name="Layer 1">
    <g id="Variant_2" data-name="Variant 2">
      <g>
        <g>
          <path class="cls-1" d="m70.74,7.02h0c0,2.74,2.01,5.04,4.72,5.44,26.3,3.98,46.52,26.72,46.52,54.11s-20.22,50.13-46.52,54.11c-2.71.41-4.72,2.71-4.72,5.44h0c0,3.33,2.95,5.95,6.25,5.46,31.64-4.72,55.99-32.08,55.99-65.01S108.62,6.28,76.98,1.56c-3.3-.49-6.25,2.13-6.25,5.46Z"/>
          <path class="cls-1" d="m76.19,133.14c-1.64,0-3.24-.59-4.51-1.68-1.56-1.34-2.45-3.29-2.45-5.34,0-3.49,2.52-6.4,5.99-6.93,25.79-3.9,45.24-26.52,45.24-52.62s-19.45-48.72-45.24-52.62c-3.47-.53-5.99-3.44-5.99-6.93,0-2.05.89-4,2.45-5.34,1.53-1.32,3.54-1.9,5.52-1.61,32.65,4.87,57.27,33.46,57.27,66.5s-24.62,61.62-57.27,66.5c-.34.05-.67.08-1.01.08Zm-.02-130.14c-.92,0-1.81.33-2.53.96-.89.77-1.41,1.89-1.41,3.06,0,1.99,1.45,3.66,3.44,3.96,27.25,4.12,47.79,28.02,47.79,55.59s-20.55,51.47-47.79,55.59c-1.99.3-3.44,1.97-3.44,3.96,0,1.18.51,2.29,1.41,3.06.88.76,1.99,1.08,3.12.91,31.19-4.66,54.71-31.97,54.71-63.53S107.95,7.7,76.76,3.04c-.2-.03-.39-.04-.58-.04Z"/>
        </g>
        <g>
          <path class="cls-1" d="m63.74,126.12h0c0-2.74-2.01-5.04-4.72-5.44-26.3-3.98-46.52-26.72-46.52-54.11S32.72,16.44,59.02,12.46c2.71-.41,4.72-2.71,4.72-5.44h0c0-3.33-2.95-5.95-6.25-5.46C25.85,6.28,1.5,33.63,1.5,66.57s24.35,60.29,55.99,65.01c3.3.49,6.25-2.13,6.25-5.46Z"/>
          <path class="cls-1" d="m58.28,133.14c-.34,0-.67-.02-1.01-.08C24.62,128.19,0,99.61,0,66.57S24.62,4.95,57.27.08c1.98-.3,3.99.29,5.52,1.61,1.56,1.34,2.45,3.29,2.45,5.34,0,3.49-2.52,6.4-5.99,6.93-25.79,3.9-45.24,26.52-45.24,52.62s19.45,48.72,45.24,52.62c3.47.53,5.99,3.44,5.99,6.93,0,2.05-.89,4-2.45,5.34-1.27,1.09-2.87,1.68-4.51,1.68Zm.02-130.14c-.19,0-.39.01-.58.04C26.52,7.7,3,35.01,3,66.57s23.52,58.87,54.71,63.53c1.13.17,2.24-.16,3.12-.91.89-.77,1.41-1.89,1.41-3.06,0-1.99-1.45-3.66-3.44-3.96-27.25-4.12-47.79-28.02-47.79-55.59S31.55,15.1,58.79,10.98c1.99-.3,3.44-1.97,3.44-3.96,0-1.18-.51-2.29-1.41-3.06-.73-.63-1.61-.96-2.53-.96Z"/>
        </g>
      </g>
      <g>
        <g>
          <path class="cls-1" d="m51.97,42.23h17.37c11.86,0,21.5,9.65,21.5,21.5v.42h11v-.42c0-17.92-14.58-32.5-32.5-32.5h-28.37v11h11Z"/>
          <path class="cls-1" d="m103.34,65.65h-14v-1.92c0-11.03-8.97-20-20-20h-29.87v-14h29.87c18.75,0,34,15.25,34,34v1.92Zm-11.03-3h8.01c-.57-16.6-14.25-29.92-30.98-29.92h-26.87v8h26.87c12.32,0,22.41,9.74,22.97,21.92Z"/>
        </g>
        <g>
          <rect class="cls-1" x="40.97" y="53.23" width="11" height="10.92"/>
          <path class="cls-1" d="m53.47,65.65h-14v-13.92h14v13.92Zm-11-3h8v-7.92h-8v7.92Z"/>
        </g>
        <g>
          <path class="cls-1" d="m90.04,75.15c-2.52,9.08-10.83,15.76-20.7,15.76h-17.37v-15.76h-11v26.76h28.37c15.96,0,29.27-11.57,31.98-26.76h-11.28Z"/>
          <path class="cls-1" d="m69.34,103.41h-29.87v-29.76h14v15.76h15.87c8.94,0,16.86-6.03,19.25-14.67l.3-1.1h14.22l-.32,1.76c-2.9,16.22-16.97,28-33.46,28Zm-26.87-3h26.87c14.43,0,26.83-9.89,30.14-23.76h-8.33c-3.1,9.34-11.91,15.76-21.81,15.76h-18.87v-15.76h-8v23.76Z"/>
        </g>
      </g>
    </g>
  </g>
</svg>